# xmcd
#
# Track frame offsets: 
#        150
#        11313
#        28667
#        46833
#        62863
#        81240
#        97909
#        116544
#        132700
#        152439
#        172285
#        189156
#        205645
#        221669
#        239416
#
# Disc length: 3458 seconds
#
# Revision: 0
# Processed by: cddbd v1.5.2PL0 Copyright (c) Steve Scherf et al.
# Submitted via: ExactAudioCopy v0.95b3
#
DISCID=c60d800f
DTITLE=Marques Houston - Veteran
DYEAR=2007
DGENRE=R&B
TTITLE0=Veteran (Intro)
TTITLE1=Like This
TTITLE2=Always and Forever
TTITLE3=Favorite Girl
TTITLE4=Circle
TTITLE5=Wonderful
TTITLE6=Exclusively
TTITLE7=How You Just Gonna
TTITLE8=Hold N Back
TTITLE9=Kimberly
TTITLE10=So Right For Me
TTITLE11=Miss Being Your Man
TTITLE12=All Because Of You
TTITLE13=12 O'Clock
TTITLE14=Naked
EXTD=
EXTT0=
EXTT1=
EXTT2=
EXTT3=
EXTT4=
EXTT5=
EXTT6=
EXTT7=
EXTT8=
EXTT9=
EXTT10=
EXTT11=
EXTT12=
EXTT13=
EXTT14=
PLAYORDER=
